<svg width="123" height="122" viewBox="0 0 123 122" fill="none" xmlns="http://www.w3.org/2000/svg">
<circle cx="61.8184" cy="61" r="61" fill="#23C7EC"/>
<path d="M76.583 82H49.3354V77.3521L62.834 62.6289C64.7822 60.458 66.1646 58.6489 66.981 57.2017C67.8159 55.7358 68.2334 54.27 68.2334 52.8042C68.2334 50.8745 67.686 49.3159 66.5913 48.1284C65.5151 46.9409 64.0586 46.3472 62.2217 46.3472C60.0322 46.3472 58.3345 47.0151 57.1284 48.3511C55.9224 49.687 55.3193 51.5146 55.3193 53.834H48.5562C48.5562 51.3662 49.1128 49.1489 50.2261 47.1821C51.3579 45.1968 52.9629 43.6567 55.041 42.562C57.1377 41.4673 59.5498 40.9199 62.2773 40.9199C66.2109 40.9199 69.3096 41.9126 71.5732 43.8979C73.8555 45.8647 74.9966 48.5923 74.9966 52.0806C74.9966 54.103 74.4214 56.2275 73.271 58.4541C72.1392 60.6621 70.2744 63.1763 67.6768 65.9966L57.7686 76.6006H76.583V82Z" fill="white"/>
</svg>
