<svg width="123" height="122" viewBox="0 0 123 122" fill="none" xmlns="http://www.w3.org/2000/svg">
<circle cx="61.8184" cy="61" r="61" fill="#23C7EC"/>
<path d="M57.2397 58.7046H61.2476C62.8062 58.7046 64.0957 58.4355 65.1162 57.8975C66.1553 57.3594 66.9253 56.6172 67.4263 55.6709C67.9272 54.7246 68.1777 53.6392 68.1777 52.4146C68.1777 51.1343 67.9458 50.0396 67.4819 49.1304C67.0366 48.2026 66.3501 47.4883 65.4224 46.9873C64.5132 46.4863 63.3535 46.2358 61.9434 46.2358C60.7559 46.2358 59.6797 46.4771 58.7148 46.9595C57.7686 47.4233 57.0171 48.0913 56.4604 48.9634C55.9038 49.8169 55.6255 50.8374 55.6255 52.0249H48.8901C48.8901 49.8726 49.4561 47.9614 50.5879 46.2915C51.7197 44.6216 53.2598 43.3135 55.208 42.3672C57.1748 41.4023 59.3828 40.9199 61.832 40.9199C64.4482 40.9199 66.7305 41.356 68.6787 42.228C70.6455 43.0815 72.1763 44.3618 73.271 46.0688C74.3657 47.7759 74.9131 49.8911 74.9131 52.4146C74.9131 53.5649 74.644 54.7339 74.106 55.9214C73.5679 57.1089 72.77 58.1943 71.7124 59.1777C70.6548 60.1426 69.3374 60.9312 67.7603 61.5435C66.1831 62.1372 64.3555 62.4341 62.2773 62.4341H57.2397V58.7046ZM57.2397 63.937V60.2632H62.2773C64.6523 60.2632 66.6748 60.5415 68.3447 61.0981C70.0332 61.6548 71.4062 62.4248 72.4639 63.4082C73.5215 64.373 74.2915 65.4771 74.7739 66.7202C75.2749 67.9634 75.5254 69.2808 75.5254 70.6724C75.5254 72.5649 75.1821 74.2534 74.4956 75.7378C73.8276 77.2036 72.8721 78.4468 71.6289 79.4673C70.3857 80.4878 68.9292 81.2578 67.2593 81.7773C65.6079 82.2969 63.8081 82.5566 61.8599 82.5566C60.1157 82.5566 58.4458 82.3154 56.8501 81.833C55.2544 81.3506 53.8257 80.6362 52.564 79.6899C51.3022 78.7251 50.3003 77.5283 49.5581 76.0996C48.8345 74.6523 48.4727 72.9824 48.4727 71.0898H55.1802C55.1802 72.2959 55.4585 73.3628 56.0151 74.2905C56.5903 75.1997 57.3882 75.9141 58.4087 76.4336C59.4478 76.9531 60.6353 77.2129 61.9712 77.2129C63.3813 77.2129 64.5967 76.9624 65.6172 76.4614C66.6377 75.9604 67.417 75.2183 67.9551 74.2349C68.5117 73.2515 68.79 72.064 68.79 70.6724C68.79 69.0952 68.4839 67.8149 67.8716 66.8315C67.2593 65.8481 66.3872 65.1245 65.2554 64.6606C64.1235 64.1782 62.7876 63.937 61.2476 63.937H57.2397Z" fill="white"/>
</svg>
