<svg width="46" height="46" viewBox="0 0 46 46" fill="none" xmlns="http://www.w3.org/2000/svg">
<circle cx="22.958" cy="23.042" r="22.958" fill="#555A7B"/>
<path d="M34.8031 30.7474C34.7289 30.1873 34.4051 29.7043 33.9149 29.4225L28.1567 26.1117C27.4514 25.7062 26.5567 25.8242 25.9811 26.399L24.8469 27.5317C24.5451 27.8331 24.0676 27.8598 23.7365 27.5936C22.8423 26.8752 21.9619 26.0844 21.1198 25.2434C20.2777 24.4025 19.4859 23.5234 18.7664 22.6304C18.4999 22.2997 18.5266 21.8229 18.8285 21.5214L19.9626 20.3888C20.5382 19.8141 20.6566 18.9207 20.2504 18.2163L16.935 12.466C16.6527 11.9764 16.1692 11.6531 15.6083 11.579C15.0474 11.5047 14.4963 11.6915 14.0962 12.091L12.3872 13.7977C11.1945 14.9889 11.1753 17.1678 12.3333 19.9331C13.4468 22.592 15.5247 25.5191 18.1842 28.175C20.8438 30.8309 23.7749 32.906 26.4376 34.018C27.8006 34.5872 29.0213 34.8716 30.0519 34.8715C31.1149 34.8715 31.9757 34.5688 32.5814 33.964L34.2904 32.2574C34.6904 31.8579 34.8773 31.3075 34.8031 30.7474V30.7474ZM27.7794 26.7661L33.5376 30.0769C33.8224 30.2406 34.0104 30.5211 34.0535 30.8464C34.0897 31.1194 34.0186 31.3882 33.8576 31.6048L26.205 27.2434L26.5158 26.933C26.8501 26.5992 27.3698 26.5306 27.7794 26.7661V26.7661ZM15.5091 12.3276C15.8349 12.3706 16.1158 12.5584 16.2797 12.8428L19.5951 18.5931C19.831 19.0022 19.7622 19.5211 19.428 19.8549L19.1425 20.14L14.751 12.5232C14.9305 12.3904 15.1452 12.3183 15.369 12.3183C15.4155 12.3183 15.4623 12.3214 15.5091 12.3276V12.3276ZM32.0466 33.4301C31.099 34.3764 29.1609 34.3367 26.7293 33.3212C24.1553 32.2463 21.3106 30.2291 18.719 27.6411C16.1274 25.053 14.1073 22.2121 13.0309 19.6418C12.014 17.2134 11.9743 15.278 12.9219 14.3316L14.1906 13.0646L18.5887 20.693L18.2938 20.9875C17.7183 21.5622 17.6682 22.472 18.1773 23.1039C18.9137 24.0179 19.7239 24.9174 20.5851 25.7774C21.4464 26.6375 22.3471 27.4465 23.2623 28.182C23.895 28.6903 24.806 28.6403 25.3816 28.0656L25.6507 27.7969L33.3139 32.1644L32.0466 33.4301V33.4301Z" fill="white"/>
</svg>
